<svg width="600" height="400" viewBox="0 0 600 400" fill="none" xmlns="http://www.w3.org/2000/svg">
  <!-- Background -->
  <rect width="600" height="400" fill="url(#gradient1)"/>
  
  <!-- Laptop -->
  <rect x="150" y="180" width="300" height="180" rx="10" fill="#2D3748"/>
  <rect x="160" y="190" width="280" height="150" rx="5" fill="#4A5568"/>
  <rect x="170" y="200" width="260" height="130" fill="#1A202C"/>
  
  <!-- Screen Content -->
  <rect x="180" y="210" width="240" height="20" fill="#6F42C1"/>
  <rect x="180" y="240" width="180" height="8" fill="#E2E8F0"/>
  <rect x="180" y="255" width="200" height="8" fill="#E2E8F0"/>
  <rect x="180" y="270" width="160" height="8" fill="#E2E8F0"/>
  
  <!-- Cards on screen -->
  <rect x="180" y="290" width="70" height="30" rx="3" fill="#6F42C1" opacity="0.8"/>
  <rect x="260" y="290" width="70" height="30" rx="3" fill="#6F42C1" opacity="0.6"/>
  <rect x="340" y="290" width="70" height="30" rx="3" fill="#6F42C1" opacity="0.4"/>
  
  <!-- Floating elements -->
  <circle cx="100" cy="100" r="30" fill="#6F42C1" opacity="0.3"/>
  <circle cx="500" cy="80" r="25" fill="#8B5CF6" opacity="0.4"/>
  <circle cx="520" cy="300" r="35" fill="#6F42C1" opacity="0.2"/>
  
  <!-- Icons -->
  <rect x="80" y="120" width="40" height="40" rx="5" fill="#FFFFFF" opacity="0.9"/>
  <rect x="85" y="125" width="30" height="30" rx="3" fill="#6F42C1"/>
  
  <rect x="480" y="250" width="40" height="40" rx="5" fill="#FFFFFF" opacity="0.9"/>
  <rect x="485" y="255" width="30" height="30" rx="3" fill="#8B5CF6"/>
  
  <!-- Download arrow -->
  <path d="M300 120 L300 150 M290 140 L300 150 L310 140" stroke="#6F42C1" stroke-width="3" stroke-linecap="round"/>
  
  <!-- Gradient definitions -->
  <defs>
    <linearGradient id="gradient1" x1="0%" y1="0%" x2="100%" y2="100%">
      <stop offset="0%" style="stop-color:#F7FAFC;stop-opacity:1" />
      <stop offset="100%" style="stop-color:#EDF2F7;stop-opacity:1" />
    </linearGradient>
  </defs>
</svg>
